<?xml version="1.0" encoding="utf-8"?>
<!-- Generator: Adobe Illustrator 15.0.0, SVG Export Plug-In . SVG Version: 6.00 Build 0)  -->
<!DOCTYPE svg PUBLIC "-//W3C//DTD SVG 1.1//EN" "http://www.w3.org/Graphics/SVG/1.1/DTD/svg11.dtd">
<svg version="1.1" id="Layer_1" xmlns="http://www.w3.org/2000/svg" xmlns:xlink="http://www.w3.org/1999/xlink" x="0px" y="0px"
	 width="800px" height="600px" viewBox="0 0 800 600" enable-background="new 0 0 800 600" xml:space="preserve">
<g>
	<g>
		<rect x="209" y="236" fill="#F58337" width="40" height="39"/>
		<rect x="249" y="215" fill="#F58337" width="19" height="21"/>
		<rect x="249" y="275" fill="#F58337" width="19" height="19"/>
		<rect x="188" y="215" fill="#F58337" width="21" height="21"/>
		<rect x="188" y="275" fill="#F58337" width="21" height="19"/>
		<rect x="288" y="204" fill="#F58337" width="40" height="39"/>
		<rect x="328" y="183" fill="#F58337" width="19" height="21"/>
		<rect x="328" y="243" fill="#F58337" width="19" height="19"/>
		<rect x="268" y="183" fill="#F58337" width="20" height="21"/>
		<rect x="268" y="243" fill="#F58337" width="20" height="19"/>
	</g>
	<rect x="605" y="236" fill="#F58337" width="40" height="39"/>
	<rect x="586" y="215" fill="#F58337" width="19" height="21"/>
	<rect x="586" y="275" fill="#F58337" width="19" height="19"/>
	<rect x="645" y="215" fill="#F58337" width="21" height="21"/>
	<rect x="645" y="275" fill="#F58337" width="21" height="19"/>
	<rect x="526" y="204" fill="#F58337" width="40" height="39"/>
	<rect x="507" y="183" fill="#F58337" width="19" height="21"/>
	<rect x="507" y="243" fill="#F58337" width="19" height="19"/>
	<rect x="566" y="183" fill="#F58337" width="20" height="21"/>
	<rect x="566" y="243" fill="#F58337" width="20" height="19"/>
	<g>
		<rect x="387" y="183" fill="#F58337" width="80" height="79"/>
		<rect x="467" y="262" fill="#F58337" width="40" height="40"/>
		<rect x="347.499" y="262" fill="#F58337" width="39.502" height="40"/>
		<rect x="467" y="143.533" fill="#F58337" width="40" height="39.468"/>
		<rect x="347" y="144" fill="#F58337" width="40" height="39"/>
	</g>
	<rect x="685" y="262" fill="#F58337" width="39" height="40"/>
	<rect x="666" y="243" fill="#F58337" width="19" height="19"/>
	<rect x="666" y="302" fill="#F58337" width="19" height="21"/>
	<rect x="724" y="243" fill="#F58337" width="21" height="19"/>
	<rect x="724" y="302" fill="#F58337" width="21" height="21"/>
	<rect x="130" y="262" fill="#F58337" width="39" height="40"/>
	<rect x="109" y="243" fill="#F58337" width="21" height="19"/>
	<rect x="109" y="302" fill="#F58337" width="21" height="21"/>
	<rect x="169" y="243" fill="#F58337" width="19" height="19"/>
	<rect x="169" y="302" fill="#F58337" width="19" height="21"/>
</g>
<g>
	<path fill="#008EB0" d="M189.327,354.837c0,5.497-1.718,9.701-5.153,12.612c-3.436,2.912-8.321,4.367-14.656,4.367h-4.646v18.167
		h-10.831v-51.077h16.315c6.195,0,10.906,1.334,14.132,4C187.714,345.573,189.327,349.551,189.327,354.837z M164.872,362.942h3.563
		c3.331,0,5.822-0.657,7.477-1.974c1.653-1.315,2.48-3.231,2.48-5.747c0-2.538-0.693-4.414-2.079-5.625s-3.558-1.816-6.516-1.816
		h-4.926V362.942z"/>
	<path fill="#008EB0" d="M209.8,370.384v19.6h-10.831v-51.077h14.883c6.94,0,12.076,1.264,15.407,3.791
		c3.331,2.527,4.996,6.364,4.996,11.511c0,3.005-0.827,5.678-2.48,8.019c-1.654,2.341-3.995,4.175-7.022,5.502l15.023,22.255
		h-12.019l-12.193-19.6H209.8z M209.8,361.58h3.494c3.424,0,5.951-0.57,7.581-1.712c1.63-1.141,2.446-2.935,2.446-5.38
		c0-2.423-0.833-4.146-2.498-5.171c-1.666-1.024-4.245-1.537-7.739-1.537H209.8V361.58z"/>
	<path fill="#008EB0" d="M292.564,364.375c0,8.454-2.096,14.953-6.289,19.494c-4.192,4.542-10.202,6.813-18.027,6.813
		s-13.835-2.271-18.027-6.813c-4.192-4.541-6.289-11.063-6.289-19.564c0-8.501,2.102-14.993,6.306-19.477s10.23-6.726,18.08-6.726
		s13.853,2.26,18.01,6.777C290.486,349.399,292.564,355.897,292.564,364.375z M255.287,364.375c0,5.707,1.083,10.004,3.249,12.892
		s5.403,4.332,9.712,4.332c8.641,0,12.961-5.741,12.961-17.224c0-11.506-4.297-17.259-12.892-17.259c-4.309,0-7.558,1.45-9.747,4.35
		C256.382,354.365,255.287,358.669,255.287,364.375z"/>
	<path fill="#008EB0" d="M297.805,405.006c-2.445,0-4.577-0.256-6.394-0.769v-9.014c1.864,0.466,3.563,0.699,5.101,0.699
		c2.375,0,4.075-0.74,5.101-2.219c1.024-1.479,1.537-3.791,1.537-6.935v-47.863h10.831v47.793c0,5.962-1.363,10.504-4.088,13.625
		S303.138,405.006,297.805,405.006z"/>
	<path fill="#008EB0" d="M356.253,389.983h-29.417v-51.077h29.417v8.874h-18.586v11.215h17.293v8.873h-17.293v13.172h18.586V389.983
		z"/>
	<path fill="#008EB0" d="M388.605,347.187c-4.076,0-7.232,1.531-9.468,4.594s-3.354,7.331-3.354,12.805
		c0,11.389,4.273,17.084,12.822,17.084c3.586,0,7.931-0.896,13.032-2.69v9.083c-4.193,1.747-8.875,2.62-14.045,2.62
		c-7.43,0-13.113-2.253-17.049-6.76s-5.904-10.976-5.904-19.407c0-5.311,0.966-9.962,2.9-13.957c1.933-3.994,4.71-7.058,8.333-9.188
		c3.621-2.131,7.866-3.197,12.734-3.197c4.961,0,9.945,1.201,14.953,3.599l-3.494,8.805c-1.91-0.908-3.832-1.7-5.765-2.376
		C392.366,347.524,390.468,347.187,388.605,347.187z"/>
	<path fill="#008EB0" d="M432.205,389.983h-10.83V347.92h-13.869v-9.014h38.569v9.014h-13.87V389.983z"/>
	<path fill="#008EB0" d="M514.9,363.956c0,8.408-2.394,14.848-7.18,19.319s-11.698,6.708-20.735,6.708h-14.463v-51.077h16.035
		c8.338,0,14.813,2.201,19.425,6.603C512.595,349.911,514.9,356.06,514.9,363.956z M503.65,364.235
		c0-10.971-4.845-16.455-14.533-16.455h-5.765v33.26h4.646C498.433,381.04,503.65,375.438,503.65,364.235z"/>
	<path fill="#008EB0" d="M567.061,338.906v33.05c0,3.773-0.845,7.081-2.533,9.922c-1.688,2.842-4.128,5.02-7.319,6.533
		c-3.191,1.515-6.964,2.271-11.319,2.271c-6.568,0-11.669-1.682-15.302-5.048c-3.634-3.365-5.45-7.971-5.45-13.817v-32.91h10.795
		v31.269c0,3.936,0.792,6.824,2.376,8.664s4.204,2.76,7.86,2.76c3.54,0,6.108-0.926,7.704-2.777
		c1.595-1.852,2.393-4.757,2.393-8.717v-31.198H567.061z"/>
	<path fill="#008EB0" d="M590.398,370.384v19.6h-10.83v-51.077h14.883c6.94,0,12.076,1.264,15.407,3.791
		c3.33,2.527,4.995,6.364,4.995,11.511c0,3.005-0.827,5.678-2.48,8.019s-3.994,4.175-7.021,5.502l15.022,22.255h-12.019
		l-12.192-19.6H590.398z M590.398,361.58h3.493c3.424,0,5.951-0.57,7.582-1.712c1.63-1.141,2.445-2.935,2.445-5.38
		c0-2.423-0.833-4.146-2.498-5.171c-1.666-1.024-4.245-1.537-7.738-1.537h-3.284V361.58z"/>
	<path fill="#008EB0" d="M645.913,389.983H622.68v-6.148l6.219-2.865v-33.05l-6.219-2.865v-6.148h23.233v6.148l-6.219,2.865v33.05
		l6.219,2.865V389.983z"/>
	<path fill="#008EB0" d="M699.96,389.983h-13.766l-22.219-38.64h-0.314c0.441,6.824,0.663,11.692,0.663,14.604v24.036h-9.677
		v-51.077h13.66l22.185,38.256h0.244c-0.35-6.639-0.523-11.331-0.523-14.08v-24.176h9.747V389.983z"/>
</g>
</svg>
